<svg width="24" height="24" viewBox="0 0 24 24" fill="none" xmlns="http://www.w3.org/2000/svg">
<g id="ICON - fast cart" clip-path="url(#clip0_646_1583)">
<path id="Vector" d="M23.32 4.1C22.75 3.4 21.9 3 21 3H7.24L7.2 2.65C7.02 1.14 5.74 0 4.22 0H3C2.45 0 2 0.45 2 1C2 1.55 2.45 2 3 2H4.22C4.73 2 5.15 2.38 5.21 2.88L6.59 14.58C6.89 17.1 9.02 19 11.56 19H20C20.55 19 21 18.55 21 18C21 17.45 20.55 17 20 17H11.56C10.27 17 9.16 16.17 8.74 15H18.16C20.54 15 22.6 13.31 23.06 10.98L23.94 6.59C24.12 5.71 23.89 4.8 23.32 4.1ZM11 22C11 23.1 10.1 24 9 24C7.9 24 7 23.1 7 22C7 20.9 7.9 20 9 20C10.1 20 11 20.9 11 22ZM20 22C20 23.1 19.1 24 18 24C16.9 24 16 23.1 16 22C16 20.9 16.9 20 18 20C19.1 20 20 20.9 20 22ZM0 6C0 5.45 0.45 5 1 5H2.54C3.09 5 3.54 5.45 3.54 6C3.54 6.55 3.09 7 2.54 7H1C0.45 7 0 6.55 0 6ZM0 10C0 9.45 0.45 9 1 9H3C3.55 9 4 9.45 4 10C4 10.55 3.55 11 3 11H1C0.45 11 0 10.55 0 10ZM5 14C5 14.55 4.55 15 4 15H1C0.45 15 0 14.55 0 14C0 13.45 0.45 13 1 13H4C4.55 13 5 13.45 5 14Z" fill="#FE5100"/>
</g>
<defs>
<clipPath id="clip0_646_1583">
<rect width="24" height="24" fill="white"/>
</clipPath>
</defs>
</svg>
