<svg width="24" height="24" viewBox="0 0 24 24" fill="none" xmlns="http://www.w3.org/2000/svg">
<rect width="24" height="24" fill="#F5F5F5"/>
<g clip-path="url(#clip0_14_72)">
<rect width="1440" height="1744" transform="translate(-110 -1452)" fill="#FCFBFA"/>
<rect width="1440" height="364" transform="translate(-110 -72)" fill="#050312"/>
<g clip-path="url(#clip1_14_72)">
<path d="M23.002 21.584H23.229L22.794 20.926C23.06 20.926 23.201 20.757 23.203 20.55C23.203 20.542 23.203 20.533 23.202 20.525C23.202 20.243 23.032 20.108 22.683 20.108H22.119V21.584H22.331V20.941H22.592L23.002 21.584ZM22.577 20.774H22.331V20.275H22.643C22.804 20.275 22.988 20.301 22.988 20.512C22.988 20.754 22.803 20.774 22.577 20.774Z" fill="#FCFBFA"/>
<path d="M17.291 19.073H14.284V14.364C14.284 13.241 14.264 11.796 12.72 11.796C11.154 11.796 10.914 13.019 10.914 14.283V19.073H7.908V9.389H10.795V10.712H10.835C11.424 9.706 12.518 9.105 13.683 9.148C16.731 9.148 17.292 11.153 17.292 13.76L17.291 19.073ZM4.515 8.065C3.551 8.065 2.77 7.284 2.77 6.32C2.77 5.356 3.551 4.575 4.515 4.575C5.479 4.575 6.26 5.356 6.26 6.32C6.26 7.284 5.479 8.065 4.515 8.065ZM6.018 19.073H3.008V9.389H6.018V19.073ZM18.79 1.783H1.497C0.68 1.774 0.01 2.429 0 3.246V20.61C0.01 21.428 0.68 22.083 1.497 22.074H18.79C19.609 22.084 20.282 21.429 20.293 20.61V3.245C20.281 2.426 19.608 1.771 18.79 1.782" fill="#FCFBFA"/>
<path d="M22.603 19.451C21.839 19.458 21.225 20.084 21.233 20.848C21.24 21.612 21.866 22.226 22.63 22.2181C23.394 22.2111 24.008 21.585 24 20.821C23.993 20.067 23.383 19.458 22.63 19.451H22.603ZM22.635 22.059C21.965 22.07 21.381 21.5371 21.37 20.8671C21.359 20.1971 21.893 19.6451 22.563 19.6341C23.233 19.6231 23.785 20.157 23.796 20.827C23.796 20.834 23.796 20.84 23.796 20.847C23.81 21.502 23.29 22.045 22.635 22.059H22.604H22.635Z" fill="#FCFBFA"/>
</g>
</g>
<defs>
<clipPath id="clip0_14_72">
<rect width="1440" height="1744" fill="white" transform="translate(-110 -1452)"/>
</clipPath>
<clipPath id="clip1_14_72">
<rect width="24" height="24" fill="white"/>
</clipPath>
</defs>
</svg>
