<svg width="24" height="24" viewBox="0 0 24 24" fill="none" xmlns="http://www.w3.org/2000/svg">
<g id="ICON - random" clip-path="url(#clip0_441_180)">
<path id="Vector" d="M23.4209 16.583L20.1299 13.292C20.0382 13.1943 19.9277 13.1161 19.8052 13.0619C19.6826 13.0077 19.5504 12.9788 19.4164 12.9767C19.2825 12.9746 19.1494 12.9995 19.0253 13.0498C18.9011 13.1001 18.7883 13.1749 18.6936 13.2697C18.5988 13.3645 18.5241 13.4773 18.4739 13.6016C18.4236 13.7258 18.3989 13.8588 18.401 13.9928C18.4032 14.1268 18.4323 14.259 18.4866 14.3815C18.5408 14.504 18.6191 14.6144 18.7169 14.706L21.0069 17C19.762 17.0028 18.5292 16.7566 17.3809 16.2757C16.2327 15.7948 15.1922 15.0891 14.3209 14.2C14.2241 14.1109 14.1105 14.0421 13.9866 13.9978C13.8628 13.9535 13.7313 13.9345 13.5999 13.9419C13.4686 13.9494 13.3401 13.9832 13.2221 14.0413C13.1041 14.0993 12.9989 14.1805 12.9129 14.28L12.8999 14.3C12.7318 14.4956 12.6457 14.7486 12.6597 15.0061C12.6736 15.2636 12.7866 15.5058 12.9749 15.682C14.0247 16.7437 15.2765 17.5843 16.6566 18.1542C18.0366 18.7241 19.5169 19.0117 21.0099 19L18.7169 21.293C18.6124 21.3829 18.5276 21.4934 18.4679 21.6176C18.4081 21.7418 18.3747 21.877 18.3696 22.0147C18.3646 22.1524 18.3881 22.2897 18.4387 22.4179C18.4892 22.5461 18.5657 22.6625 18.6634 22.7598C18.761 22.857 18.8777 22.933 19.0062 22.983C19.1346 23.033 19.272 23.0559 19.4097 23.0503C19.5474 23.0447 19.6824 23.0107 19.8064 22.9504C19.9303 22.8901 20.0405 22.8049 20.1299 22.7L23.4209 19.409C23.7952 19.034 24.0055 18.5259 24.0055 17.996C24.0055 17.4662 23.7952 16.958 23.4209 16.583Z" fill="#FCFBFA"/>
<path id="Vector_2" d="M21.007 7.00008L18.717 9.29008C18.6975 9.3164 18.6795 9.34378 18.663 9.37208C18.5016 9.56883 18.422 9.82007 18.4407 10.0739C18.4593 10.3276 18.5748 10.5645 18.7632 10.7356C18.9515 10.9067 19.1985 10.9988 19.4529 10.9929C19.7073 10.987 19.9497 10.8836 20.13 10.7041L21.836 9.00008L23.422 7.41508C23.6901 7.14484 23.8756 6.80368 23.9565 6.43168C24.0375 6.05969 24.0106 5.67232 23.879 5.31508C23.7818 5.04163 23.6254 4.79303 23.421 4.58708L20.13 1.30008C20.0387 1.20089 19.9283 1.12118 19.8054 1.06575C19.6825 1.01032 19.5497 0.980302 19.4149 0.977509C19.2801 0.974717 19.1462 0.999205 19.0211 1.0495C18.896 1.0998 18.7824 1.17486 18.6871 1.27019C18.5918 1.36551 18.5167 1.47913 18.4664 1.6042C18.4161 1.72928 18.3916 1.86323 18.3944 1.99801C18.3972 2.13279 18.4272 2.26561 18.4826 2.3885C18.5381 2.51138 18.6178 2.62179 18.717 2.71308L21.01 5.00508C16.077 5.01708 13.373 7.67908 10.921 10.4791C8.66898 7.93708 5.99998 5.40008 1.48698 5.04608L1.00598 5.00008C0.740765 5.00008 0.486411 5.10544 0.298875 5.29298C0.111338 5.48051 0.00598145 5.73487 0.00598145 6.00008C0.0111016 6.2637 0.118102 6.51509 0.30454 6.70152C0.490978 6.88796 0.742368 6.99496 1.00598 7.00008C1.07798 7.00008 1.29298 7.03308 1.29298 7.03308C5.18898 7.32808 7.42498 9.52208 9.59998 12.0001C7.43798 14.4661 5.21698 16.7001 1.35298 16.9601L0.952981 16.9811C0.689754 16.9975 0.44384 17.1179 0.269337 17.3156C0.0948347 17.5134 0.00603802 17.7724 0.0224814 18.0356C0.0389249 18.2988 0.159261 18.5447 0.357019 18.7192C0.554776 18.8937 0.813754 18.9825 1.07698 18.9661C1.23298 18.9591 1.48698 18.9531 1.61198 18.9431C6.63198 18.5561 9.35498 15.3431 11.783 12.5341C14.235 9.70008 16.551 7.01808 21.007 7.00008Z" fill="#FCFBFA"/>
</g>
<defs>
<clipPath id="clip0_441_180">
<rect width="24" height="24" fill="white"/>
</clipPath>
</defs>
</svg>
